Coordinates
version=1
nRows=31
nColumns=38
inDegrees=no

Units are S.I. units (second, meters, Newtons, ...)
If the header above contains a line with 'inDegrees', this indicates whether rotational values are in degrees (yes) or radians (no).

endheader
time	pelvis_tilt	pelvis_list	pelvis_rotation	pelvis_tx	pelvis_ty	pelvis_tz	hip_flexion_r	hip_adduction_r	hip_rotation_r	knee_angle_r	ankle_angle_r	subtalar_angle_r	mtp_angle_r	hip_flexion_l	hip_adduction_l	hip_rotation_l	knee_angle_l	ankle_angle_l	subtalar_angle_l	mtp_angle_l	lumbar_extension	lumbar_bending	lumbar_rotation	arm_flex_r	arm_add_r	arm_rot_r	elbow_flex_r	pro_sup_r	wrist_flex_r	wrist_dev_r	arm_flex_l	arm_add_l	arm_rot_l	elbow_flex_l	pro_sup_l	wrist_flex_l	wrist_dev_l
1.15	-3.13664	1.42096	-1.67618	0.792252	0.570132	0.95303	-0.37023	0.0139554	-0.154558	0.0713227	0.141047	0	0	0.239263	-0.0408518	-0.26087	0.091626	0.00192355	0	0	-0.299918	0.014223	0.171264	0.0815279	-0.281718	0.681688	0.379115	0.949042	0	0	0.118463	-0.1841	0.0993405	0.246613	1.5708	0	0
1.16	3.12537	1.42158	-1.65605	0.79166	0.579933	0.950991	-0.384186	0.0153182	-0.153411	0.0668348	0.146774	0	0	0.194203	-0.0269882	-0.234087	0	-0.0416959	0	0	-0.296204	0.016406	0.17107	0.0805501	-0.281386	0.684204	0.377331	0.947723	0	0	0.115124	-0.184338	0.0981074	0.245051	1.5708	0	0
1.17	3.12171	1.42401	-1.64749	0.790353	0.58874	0.949062	-0.392659	0.0155707	-0.158675	0.0670432	0.152943	0	0	0.210617	-0.0287623	-0.257964	4.62456e-08	-0.0326143	0	0	-0.293126	0.0170683	0.165091	0.0824967	-0.280883	0.689399	0.375397	0.945226	0	0	0.11502	-0.184749	0.0975705	0.243089	1.5708	0	0
1.18	3.09765	1.42552	-1.62267	0.789639	0.598229	0.947013	-0.40189	0.0176309	-0.16098	0.0687874	0.159227	0	0	0.204663	-0.0279414	-0.268471	0	-0.0327642	0	0	-0.289177	0.0194141	0.163973	0.0817357	-0.280408	0.692868	0.374502	0.943298	0	0	0.112703	-0.185287	0.096417	0.242598	1.5708	0	0
1.19	3.09149	1.42262	-1.61463	0.789075	0.607307	0.94528	-0.41236	0.020875	-0.157924	0.0755344	0.16271	0	0	0.208077	-0.0271515	-0.277555	0	-0.0310605	0	0	-0.290194	0.0181084	0.162878	0.0810829	-0.278721	0.694889	0.373099	0.940922	0	0	0.11167	-0.186565	0.0951839	0.244115	1.5708	0	0
1.2	3.08323	1.41605	-1.60732	0.788774	0.616947	0.944015	-0.42766	0.0192692	-0.159037	0.0824624	0.168983	0	0	0.19279	-0.0258278	-0.274641	0	-0.0386267	0	0	-0.293702	0.0163791	0.165142	0.0784081	-0.277017	0.695286	0.371613	0.938789	0	0	0.109496	-0.188065	0.0942749	0.24526	1.5708	0	0
1.21	2.95416	1.42895	-1.49617	0.787474	0.62504	0.942266	-0.414705	0.0226869	-0.167319	0.0911529	0.173404	0	0	0.197006	-0.0451467	-0.299874	0	-0.0177696	0	0	-0.28388	0.0352486	0.182908	0.0811874	-0.286751	0.697046	0.374879	0.936068	0	0	0.110156	-0.177757	0.0891369	0.241026	1.5708	0	0
1.22	3.05765	1.41911	-1.5907	0.787245	0.636332	0.940639	-0.437042	0.0137431	-0.17584	0.0971487	0.17894	0	0	0.177031	-0.0256308	-0.290288	0	-0.0300278	0	0	-0.287187	0.0163558	0.175087	0.0736501	-0.278333	0.695347	0.372384	0.935583	0	0	0.107655	-0.185722	0.0882358	0.241373	1.5708	0	0
1.23	3.06601	1.41408	-1.59864	0.786615	0.647736	0.93982	-0.446088	0.0031634	-0.180447	0.117828	0.193122	0	0	0.171544	-0.0264256	-0.31141	0.0237413	-0.0113023	0	0	-0.287094	0.0128401	0.173091	0.0688215	-0.274076	0.692473	0.369927	0.935784	0	0	0.102038	-0.189538	0.0871204	0.242372	1.5708	0	0
1.24	3.06255	1.41376	-1.60548	0.78589	0.657916	0.938457	-0.451789	-0.00565895	-0.196973	0.126585	0.197699	0	0	0.144042	-0.017562	-0.304117	0	-0.0436879	0	0	-0.284443	0.0108049	0.18459	0.063427	-0.275982	0.688347	0.37066	0.936989	0	0	0.0982829	-0.187601	0.0863593	0.243876	1.5708	0	0
1.25	3.08615	1.40719	-1.63273	0.785028	0.668418	0.937893	-0.459553	-0.0169798	-0.204176	0.146847	0.203625	0	0	0.129652	-0.0112955	-0.312023	0	-0.0645042	0	0	-0.28798	0.00394004	0.189601	0.0582312	-0.274551	0.682792	0.370075	0.938345	0	0	0.0960468	-0.188299	0.0857609	0.245624	1.5708	0	0
1.26	3.12006	1.40193	-1.6684	0.783887	0.67909	0.937322	-0.46434	-0.0303035	-0.21401	0.17023	0.209347	0	0	0.117549	-0.00294424	-0.32047	0	-0.0921075	0	0	-0.289717	-0.00457773	0.192838	0.0525501	-0.27238	0.676789	0.368704	0.939812	0	0	0.0933917	-0.189244	0.0847713	0.247843	1.5708	0	0
1.27	-3.11404	1.39459	-1.71198	0.782613	0.690143	0.937061	-0.465639	-0.0440494	-0.214542	0.207038	0.216363	0	0	0.12626	-0.00102554	-0.349227	0.0402994	-0.0995586	0	0	-0.292575	-0.0161828	0.189073	0.0465153	-0.266574	0.668956	0.365986	0.94149	0	0	0.0908722	-0.193355	0.0849835	0.249832	1.5708	0	0
1.28	-3.08325	1.39328	-1.74297	0.780979	0.700715	0.93651	-0.461277	-0.0575898	-0.22328	0.238124	0.218359	0	0	0.123217	0.00485532	-0.36396	0.0526469	-0.122463	0	0	-0.290257	-0.0234906	0.191729	0.0403715	-0.264472	0.661433	0.364733	0.943096	0	0	0.0885812	-0.193695	0.0848639	0.25127	1.5708	0	0
1.29	-3.03515	1.39088	-1.78805	0.778924	0.711558	0.936292	-0.456882	-0.073965	-0.235435	0.27111	0.217245	0	0	0.119831	0.014765	-0.37329	0.0663672	-0.136322	0	0	-0.287753	-0.0334734	0.191193	0.033465	-0.261866	0.653574	0.36356	0.945189	0	0	0.0866317	-0.194615	0.0846361	0.251605	1.5708	0	0
1.3	-2.98056	1.39045	-1.84252	0.776373	0.721401	0.936482	-0.449315	-0.094435	-0.259358	0.30012	0.210157	0	0	0.122753	0.0246288	-0.380898	0.0869974	-0.139087	0	0	-0.285191	-0.0438449	0.193553	0.0289376	-0.261823	0.64598	0.363141	0.947845	0	0	0.0874784	-0.192673	0.0838688	0.251509	1.5708	0	0
1.31	-2.92305	1.38081	-1.89187	0.774517	0.732817	0.937483	-0.44388	-0.112535	-0.255861	0.348743	0.20211	0	0	0.114495	0.0372713	-0.379774	0.108309	-0.1303	0	0	-0.287645	-0.0585939	0.188102	0.0216284	-0.256033	0.637911	0.361519	0.950516	0	0	0.0860352	-0.196791	0.0834491	0.253282	1.5708	0	0
1.32	-2.87158	1.37507	-1.93834	0.772147	0.743348	0.938626	-0.432717	-0.132468	-0.262371	0.394413	0.187845	0	0	0.111241	0.049312	-0.382018	0.129194	-0.120271	0	0	-0.288152	-0.0707567	0.18629	0.0156353	-0.25385	0.629784	0.362084	0.953059	0	0	0.0857071	-0.198066	0.0850247	0.254954	1.5708	0	0
1.33	-2.82784	1.37167	-1.9758	0.769581	0.753867	0.939769	-0.415764	-0.150503	-0.266101	0.444988	0.166564	0	0	0.106618	0.0605837	-0.379814	0.143633	-0.106621	0	0	-0.286291	-0.0802563	0.184153	0.00906508	-0.252564	0.622259	0.363812	0.955266	0	0	0.0851506	-0.198945	0.087667	0.257549	1.5708	0	0
1.34	-2.78965	1.37083	-2.00661	0.76678	0.764382	0.940871	-0.392337	-0.167089	-0.267723	0.500862	0.137336	0	0	0.100583	0.071859	-0.374594	0.150248	-0.0947218	0	0	-0.281789	-0.0870152	0.181791	0.00202739	-0.252196	0.615626	0.36603	0.957029	0	0	0.0842212	-0.199158	0.0906522	0.261475	1.5708	0	0
1.35	-2.75137	1.37303	-2.03725	0.763761	0.77493	0.941786	-0.361153	-0.183543	-0.267541	0.562348	0.0994866	0	0	0.0948633	0.0834644	-0.368699	0.15086	-0.0854619	0	0	-0.27356	-0.091658	0.179767	-0.00558092	-0.252594	0.608925	0.368321	0.958958	0	0	0.0819171	-0.199365	0.0967097	0.266867	1.5708	0	0
1.36	-2.7164	1.37641	-2.0648	0.760679	0.785396	0.942613	-0.325574	-0.198541	-0.262792	0.625791	0.0534265	0	0	0.0882802	0.0946828	-0.362899	0.147509	-0.0792073	0	0	-0.264035	-0.0945308	0.178165	-0.0128747	-0.254104	0.60626	0.370279	0.9592	0	0	0.0794791	-0.199652	0.105441	0.271697	1.5708	0	0
1.37	-2.6806	1.38081	-2.09444	0.757766	0.795627	0.943263	-0.285298	-0.212626	-0.252278	0.690725	0.00204712	0	0	0.0821745	0.105177	-0.358396	0.14262	-0.0743511	0	0	-0.253354	-0.0970466	0.177768	-0.019533	-0.25585	0.604941	0.372356	0.956131	0	0	0.0777483	-0.200293	0.115816	0.275178	1.5708	0	0
1.38	-2.64015	1.38581	-2.13045	0.75521	0.805534	0.943671	-0.240846	-0.226037	-0.236342	0.756501	-0.0525611	0	0	0.0767043	0.115243	-0.353325	0.136964	-0.0683779	0	0	-0.241661	-0.100369	0.178555	-0.025189	-0.257057	0.603666	0.373989	0.951535	0	0	0.0766027	-0.201663	0.125724	0.27802	1.5708	0	0
1.39	-2.5937	1.39005	-2.17367	0.753041	0.815151	0.94391	-0.193635	-0.239283	-0.216345	0.823362	-0.106267	0	0	0.0710626	0.1255	-0.348099	0.130602	-0.0614173	0	0	-0.230198	-0.105364	0.179407	-0.02963	-0.257643	0.602925	0.375609	0.94638	0	0	0.0746071	-0.204817	0.137277	0.284664	1.5708	0	0
1.4	-2.54444	1.39294	-2.2205	0.751217	0.824461	0.944053	-0.145447	-0.251846	-0.194012	0.889512	-0.157868	0	0	0.0649771	0.135512	-0.34235	0.12466	-0.0537012	0	0	-0.220038	-0.111744	0.179853	-0.0327658	-0.25751	0.600707	0.377491	0.942986	0	0	0.073495	-0.208403	0.144676	0.289915	1.5708	0	0
1.41	-2.49733	1.39486	-2.26607	0.749716	0.833392	0.944141	-0.0966075	-0.26253	-0.170364	0.953909	-0.206792	0	0	0.0586902	0.144268	-0.33622	0.119842	-0.0457197	0	0	-0.211707	-0.118692	0.180105	-0.0347222	-0.256968	0.596849	0.380212	0.939547	0	0	0.0716327	-0.213325	0.153489	0.299221	1.5708	0	0
1.42	-2.45997	1.39521	-2.30242	0.748419	0.842074	0.944432	-0.0502356	-0.271083	-0.147471	1.01386	-0.249495	0	0	0.0504733	0.151954	-0.330926	0.115241	-0.0396391	0	0	-0.206484	-0.125283	0.1797	-0.0356174	-0.256412	0.593365	0.383219	0.93892	0	0	0.0693493	-0.218871	0.16248	0.310052	1.5708	0	0
1.43	-2.43674	1.39394	-2.32435	0.747201	0.850595	0.945006	-0.00963568	-0.277422	-0.127797	1.06572	-0.279284	0	0	0.0392373	0.158677	-0.325808	0.110092	-0.0352379	0	0	-0.204827	-0.130975	0.177977	-0.0356033	-0.255561	0.588084	0.386151	0.942872	0	0	0.0653364	-0.225785	0.175977	0.326036	1.5708	0	0
1.44	-2.43012	1.39126	-2.32907	0.745959	0.858985	0.945887	0.0242106	-0.281602	-0.111822	1.10961	-0.295123	0	0	0.0235542	0.164732	-0.31967	0.102303	-0.032065	0	0	-0.20674	-0.135167	0.174771	-0.0350091	-0.255006	0.58233	0.389583	0.948992	0	0	0.0625878	-0.231037	0.184729	0.340148	1.5708	0	0
1.45	-2.43561	1.38841	-2.32118	0.74464	0.867222	0.94698	0.0546991	-0.28367	-0.0985275	1.14971	-0.297953	0	0	0.00444199	0.170062	-0.311945	0.0909998	-0.0296384	0	0	-0.210542	-0.137355	0.170661	-0.034062	-0.254814	0.575948	0.393642	0.954451	0	0	0.0622575	-0.233831	0.188732	0.347354	1.5708	0	0
